<?xml version="1.0" standalone="no"?>
<!DOCTYPE svg PUBLIC "-//W3C//DTD SVG 20010904//EN"
 "http://www.w3.org/TR/2001/REC-SVG-20010904/DTD/svg10.dtd">
<svg version="1.0" xmlns="http://www.w3.org/2000/svg"
 width="848.000000pt" height="848.000000pt" viewBox="0 0 848.000000 848.000000"
 preserveAspectRatio="xMidYMid meet">
<metadata>
Created by potrace 1.14, written by Peter Selinger 2001-2017
</metadata>
<g transform="translate(0.000000,848.000000) scale(0.100000,-0.100000)"
fill="#000000" stroke="none">
<path d="M4155 8361 c-117 -60 -260 -125 -267 -123 -5 1 -8 -2 -8 -8 0 -5 -4
-10 -10 -10 -5 0 -38 -13 -72 -29 -155 -71 -646 -276 -683 -285 -5 -2 -21 -7
-35 -13 -14 -6 -43 -16 -65 -24 -22 -8 -43 -18 -47 -24 -4 -5 -8 -7 -8 -2 0 4
-17 0 -37 -9 -21 -8 -46 -17 -55 -19 -9 -2 -25 -8 -35 -13 -18 -10 -345 -121
-373 -127 -8 -2 -42 -12 -75 -23 -69 -24 -221 -70 -250 -77 -11 -2 -103 -27
-205 -55 -102 -28 -194 -52 -205 -55 -11 -2 -49 -12 -85 -21 -36 -9 -72 -17
-80 -19 -8 -1 -22 -5 -30 -8 -13 -4 -66 -16 -193 -42 -10 -2 -26 -6 -35 -9 -9
-3 -33 -8 -52 -11 -19 -3 -64 -12 -100 -20 -36 -8 -76 -16 -90 -19 -14 -2 -36
-7 -50 -10 -31 -7 -75 -15 -115 -21 -16 -3 -65 -11 -110 -20 -44 -8 -96 -17
-115 -19 -19 -3 -35 -5 -35 -6 0 -3 -29 -7 -85 -14 -30 -3 -66 -8 -80 -10 -35
-7 -98 -16 -145 -22 -22 -2 -51 -6 -65 -9 -24 -3 -55 -8 -150 -21 -25 -3 -52
-8 -60 -9 -8 -2 -23 -4 -33 -4 -19 -1 -19 -25 -2 -121 1 -8 6 -35 9 -60 4 -25
11 -67 16 -95 13 -70 29 -164 35 -200 2 -16 7 -43 10 -60 2 -16 7 -41 9 -55 3
-14 5 -25 6 -25 1 0 3 -12 5 -26 2 -14 13 -73 25 -130 12 -57 24 -115 27 -129
2 -14 11 -52 20 -85 8 -33 17 -69 18 -80 1 -11 3 -20 4 -20 2 0 4 -11 7 -25 2
-14 8 -42 14 -62 5 -21 14 -55 19 -75 5 -21 17 -63 25 -93 9 -30 17 -59 17
-65 1 -5 8 -30 16 -55 7 -25 16 -54 18 -65 10 -45 149 -484 165 -520 5 -11 36
-96 70 -190 35 -93 65 -174 68 -180 4 -5 7 -14 8 -20 1 -5 28 -71 59 -145 78
-183 94 -220 111 -253 8 -16 14 -35 14 -43 0 -8 5 -14 10 -14 6 0 10 -6 10
-13 0 -28 256 -538 352 -700 15 -26 28 -52 28 -57 0 -6 4 -10 8 -10 4 0 14
-16 21 -35 7 -19 17 -35 22 -35 5 0 9 -5 9 -10 0 -6 12 -29 27 -53 15 -23 34
-55 43 -70 45 -84 290 -461 302 -465 4 -2 8 -8 8 -12 0 -5 29 -50 64 -100 l64
-90 79 62 c42 35 85 70 94 78 9 8 25 22 35 30 25 20 138 114 144 120 3 3 30
25 60 50 30 25 60 49 66 55 6 5 35 30 65 55 99 83 115 99 103 107 -6 5 -39 51
-74 103 -35 52 -68 99 -72 105 -18 22 -193 302 -256 410 -115 199 -212 377
-212 390 0 7 -4 15 -9 17 -7 3 -148 283 -199 398 -11 25 -36 80 -56 124 -20
43 -36 85 -36 92 0 8 -4 14 -10 14 -5 0 -10 6 -10 13 0 10 -40 113 -91 232
-27 63 -184 504 -194 545 -2 8 -22 76 -45 150 -23 74 -43 142 -45 150 -2 8
-11 42 -20 75 -9 33 -23 87 -31 120 -8 33 -19 74 -24 90 -9 29 -15 57 -26 119
-3 16 -10 40 -15 53 -11 29 -12 73 -1 74 4 1 16 3 27 4 11 2 70 13 130 24 61
12 121 24 135 26 49 9 72 14 88 19 9 3 31 8 47 11 17 2 41 7 55 10 34 8 61 14
85 19 11 2 61 14 110 25 50 12 101 24 115 27 14 2 50 12 80 20 30 9 66 18 80
21 14 2 43 9 65 15 22 7 43 12 48 14 4 1 10 3 15 4 4 1 11 2 15 1 4 -1 16 3
26 8 10 6 29 12 42 15 25 5 36 8 104 26 48 13 55 15 75 23 13 5 142 42 180 52
96 24 718 235 825 279 17 7 46 19 65 26 19 7 50 19 69 27 18 8 39 16 45 18 6
1 22 7 36 12 14 6 61 25 105 43 44 17 94 38 110 45 81 37 166 74 173 76 4 1
36 15 70 31 35 15 66 28 68 28 2 0 32 14 66 30 34 17 72 30 85 30 13 0 53 -14
90 -31 81 -37 112 -51 178 -79 63 -27 98 -42 157 -69 26 -11 55 -21 63 -21 8
0 15 -4 15 -10 0 -5 3 -9 8 -8 4 1 21 -4 37 -11 17 -7 57 -23 90 -36 33 -13
74 -29 90 -36 17 -7 33 -13 38 -14 4 -2 9 -4 12 -5 3 -1 8 -3 13 -4 4 -1 12
-4 17 -7 6 -4 28 -12 50 -19 22 -7 45 -16 50 -20 6 -4 28 -13 50 -19 22 -7 49
-16 60 -21 35 -15 185 -68 370 -130 99 -33 180 -60 180 -61 0 0 7 -2 15 -4 8
-1 49 -13 90 -26 41 -13 77 -24 80 -24 3 -1 25 -7 50 -15 57 -17 58 -17 100
-29 19 -5 76 -21 125 -35 106 -31 439 -116 475 -122 14 -3 32 -7 40 -11 8 -3
22 -7 30 -8 8 -1 26 -5 40 -8 118 -26 322 -69 350 -73 19 -3 44 -8 55 -11 11
-3 29 -7 40 -9 35 -4 88 -15 94 -18 3 -2 24 -7 46 -10 22 -4 43 -10 48 -15 5
-5 1 -35 -7 -68 -9 -32 -18 -70 -20 -84 -2 -13 -5 -24 -6 -24 -1 0 -3 -8 -5
-17 -2 -9 -11 -48 -20 -85 -10 -37 -18 -72 -20 -78 -1 -5 -4 -17 -8 -25 -3 -8
-11 -37 -17 -65 -7 -27 -22 -81 -33 -120 -11 -38 -22 -76 -23 -83 -6 -34 -133
-413 -176 -527 -27 -71 -51 -138 -53 -149 -2 -10 -8 -23 -13 -30 -4 -6 -14
-29 -21 -51 -14 -41 -114 -278 -158 -375 -14 -30 -36 -80 -50 -110 -13 -30
-28 -62 -34 -70 -5 -8 -14 -26 -20 -40 -10 -23 -87 -177 -155 -310 -16 -30
-32 -56 -36 -58 -5 -2 -8 -8 -8 -14 0 -9 -100 -190 -149 -270 -9 -14 -34 -57
-55 -95 -22 -37 -42 -70 -46 -73 -3 -3 -22 -31 -41 -64 -63 -108 -74 -125 -99
-153 -13 -15 -23 -30 -22 -33 1 -3 -5 -13 -13 -23 -8 -9 -15 -20 -15 -23 0 -2
-5 -10 -10 -17 -25 -29 -100 -137 -100 -144 0 -5 14 -19 32 -33 17 -14 39 -32
47 -40 9 -9 54 -47 101 -85 47 -39 96 -80 110 -92 14 -12 99 -83 189 -157
l165 -137 23 25 c13 14 23 30 23 36 0 5 5 10 10 10 6 0 10 6 10 14 0 8 4 16 8
18 11 4 232 335 232 347 0 5 4 11 8 13 12 4 179 278 256 418 16 30 33 57 38
58 4 2 8 8 8 13 0 6 36 75 79 155 44 80 83 155 87 167 4 12 9 24 13 27 3 3 18
30 33 60 56 116 117 247 138 295 13 28 36 79 52 115 28 60 49 108 53 120 1 3
7 19 14 35 7 17 12 31 12 32 -1 2 11 29 25 60 28 64 129 330 176 463 16 47 32
92 35 100 3 8 7 20 8 25 2 6 12 37 23 70 17 51 63 200 128 420 8 28 16 57 18
65 1 8 8 35 15 60 7 25 14 52 16 60 2 8 11 44 20 80 9 36 18 72 20 80 2 8 11
47 20 85 9 39 19 84 22 100 7 43 11 60 13 60 2 0 6 22 14 70 4 22 9 48 12 57
7 23 14 58 19 93 3 17 7 41 10 55 2 14 7 41 10 60 6 37 12 69 21 110 3 14 6
32 6 40 0 8 4 38 9 65 11 59 17 94 24 138 3 17 10 58 16 90 5 31 7 61 4 66 -3
5 -29 12 -58 16 -79 10 -257 35 -297 41 -19 3 -48 7 -65 9 -40 4 -105 14 -131
19 -41 8 -99 18 -129 21 -30 3 -49 6 -155 26 -65 12 -96 18 -130 25 -50 10
-66 13 -100 19 -46 7 -165 33 -213 46 -20 5 -42 7 -47 4 -5 -3 -11 -1 -14 4
-3 4 -25 12 -48 16 -24 4 -47 9 -53 11 -5 2 -23 6 -39 9 -16 3 -56 13 -90 21
-64 16 -82 20 -131 30 -16 3 -34 9 -40 12 -5 3 -16 7 -25 8 -33 5 -79 16 -160
40 -47 14 -94 27 -105 29 -17 2 -54 13 -190 54 -16 5 -77 23 -135 41 -58 17
-118 37 -135 43 -16 6 -34 12 -40 13 -15 3 -400 138 -480 169 -38 15 -76 27
-82 28 -7 0 -13 4 -13 9 0 4 -6 8 -14 8 -46 0 -676 272 -1010 436 -60 30 -111
53 -115 53 -3 -1 -38 -18 -76 -38z"/>
<path d="M4070 6449 c-80 -34 -158 -67 -175 -74 -16 -7 -68 -27 -115 -45 -47
-18 -89 -35 -95 -38 -5 -4 -15 -7 -22 -8 -6 -1 -55 -19 -110 -39 -295 -112
-953 -324 -953 -308 0 3 -6 1 -12 -5 -7 -5 -29 -13 -48 -18 -44 -10 -44 -10
-110 -29 -53 -16 -135 -39 -307 -86 -46 -13 -83 -27 -83 -31 0 -9 101 -270
126 -325 8 -17 14 -33 14 -36 0 -2 8 -22 17 -43 9 -22 17 -41 18 -44 8 -25
128 -308 151 -352 13 -26 25 -51 26 -55 5 -28 220 -450 277 -543 11 -19 26
-46 33 -60 54 -110 406 -656 458 -713 11 -11 20 -25 20 -30 0 -4 6 -15 13 -22
17 -19 23 -28 97 -125 36 -47 73 -92 82 -101 10 -9 18 -20 18 -25 0 -5 8 -17
18 -26 23 -23 40 -43 88 -102 21 -27 48 -59 59 -71 11 -11 45 -49 75 -84 160
-185 419 -453 605 -626 68 -63 199 -182 225 -205 38 -33 142 -124 154 -135 6
-5 51 -44 101 -85 49 -41 99 -83 110 -93 11 -10 39 -33 62 -50 23 -18 43 -38
43 -45 0 -18 -39 -59 -333 -353 -199 -199 -251 -246 -268 -242 -11 3 -23 12
-26 19 -3 8 -9 14 -15 14 -5 0 -15 6 -23 13 -7 6 -21 19 -32 27 -10 8 -63 51
-118 94 -55 44 -112 92 -127 108 -16 15 -28 25 -28 22 0 -3 -6 1 -14 8 -7 8
-41 38 -76 68 -159 139 -319 291 -481 455 -173 176 -255 263 -322 342 -28 34
-56 62 -61 62 -9 1 -98 -60 -221 -151 -44 -32 -123 -90 -175 -128 -171 -125
-185 -135 -190 -141 -3 -3 -15 -12 -28 -18 -36 -19 -62 -44 -62 -59 0 -7 10
-23 23 -36 12 -12 39 -42 60 -67 146 -168 535 -565 711 -724 48 -44 105 -95
125 -113 20 -19 53 -48 75 -65 21 -18 48 -41 60 -52 11 -11 57 -49 101 -85 44
-36 89 -74 101 -85 30 -28 241 -190 386 -296 68 -49 132 -97 144 -107 11 -9
32 -23 47 -31 15 -8 27 -18 27 -23 0 -4 4 -8 10 -8 11 0 113 -71 118 -82 2 -5
8 -8 14 -8 5 0 29 -14 54 -31 37 -25 45 -28 50 -15 3 9 12 16 19 16 7 0 15 4
17 9 2 5 136 146 299 313 164 166 327 335 363 373 67 70 363 379 466 484 30
32 91 97 135 145 44 49 91 101 105 116 14 15 52 58 85 95 33 38 67 76 75 85 8
9 37 43 65 75 27 33 60 71 72 85 13 14 23 29 23 35 -1 5 -58 48 -128 95 -69
47 -133 90 -142 97 -8 6 -62 46 -120 89 -127 95 -481 375 -532 422 -21 19 -48
42 -60 50 -12 9 -29 23 -38 31 -9 9 -42 39 -74 66 -32 28 -73 64 -91 80 -347
318 -588 563 -771 784 -16 19 -41 47 -56 63 -14 15 -24 28 -22 28 3 0 -2 7
-10 16 -9 9 -29 32 -44 52 -15 21 -31 42 -37 48 -12 13 -34 42 -110 144 -30
41 -59 80 -63 85 -4 6 -37 53 -73 105 -35 52 -66 97 -69 100 -13 12 -130 201
-130 210 0 6 -4 10 -8 10 -5 0 -17 17 -29 38 -11 20 -50 89 -87 152 -38 63
-79 137 -93 165 -14 27 -28 52 -32 55 -3 3 -7 10 -8 15 -1 6 -34 71 -73 145
-73 141 -80 164 -55 174 20 7 358 120 365 121 3 0 16 7 30 15 14 7 25 12 25
10 0 -3 64 15 95 27 8 4 17 7 20 8 3 1 19 7 35 14 17 7 38 13 48 14 9 1 17 5
17 9 0 4 3 7 8 6 4 -1 21 4 37 11 17 6 91 35 165 63 74 28 136 54 138 58 1 4
22 6 45 4 34 -2 125 -34 312 -109 11 -5 23 -9 28 -10 4 -2 9 -4 12 -5 3 -1 8
-3 13 -5 4 -1 14 -4 22 -8 8 -3 42 -15 75 -27 33 -11 67 -23 75 -27 8 -3 20
-7 25 -8 17 -4 199 -66 220 -75 40 -18 203 -70 216 -70 8 0 24 -9 37 -18 l24
-18 -34 -70 c-18 -38 -35 -71 -38 -74 -3 -3 -25 -45 -50 -95 -64 -130 -251
-458 -271 -475 -3 -3 -16 -25 -29 -50 -14 -25 -32 -54 -41 -65 -9 -11 -26 -38
-36 -59 l-20 -39 66 -70 c62 -66 190 -192 416 -411 123 -119 128 -123 145 -91
7 14 17 25 22 25 4 0 8 4 8 8 0 5 33 58 73 119 41 60 77 116 80 124 4 8 21 34
37 59 17 25 33 53 36 63 4 9 9 17 13 17 4 0 13 16 21 35 8 19 17 35 22 35 4 0
8 6 8 14 0 7 7 19 15 26 8 7 12 16 9 21 -3 5 -1 9 5 9 5 0 13 10 17 23 3 12
12 29 19 37 7 8 25 40 41 70 15 30 37 67 47 83 10 15 15 27 11 27 -3 0 -2 6 4
13 16 18 152 294 152 307 0 5 5 10 10 10 6 0 10 6 10 14 0 7 24 65 53 127 49
103 67 145 72 159 1 3 13 31 28 64 15 32 27 64 27 70 0 7 5 17 12 24 6 6 13
17 14 24 2 12 57 150 89 223 7 17 25 64 40 105 14 41 31 85 37 97 6 13 9 25 7
26 -4 4 -77 24 -118 33 -14 3 -28 7 -33 10 -4 3 -17 7 -28 10 -26 5 -40 9
-127 34 -138 38 -208 58 -240 68 -18 6 -33 8 -33 5 0 -3 -7 0 -15 7 -8 7 -15
10 -15 7 0 -3 -16 1 -35 9 -19 8 -36 14 -37 13 -13 -6 -767 246 -903 302 -16
7 -35 13 -40 14 -6 2 -33 12 -60 23 -28 11 -104 41 -170 67 -66 26 -144 58
-173 71 -29 13 -54 24 -56 24 -2 0 -21 8 -42 17 -68 30 -91 26 -244 -38z"/>
</g>
</svg>
