<svg xmlns="http://www.w3.org/2000/svg" width="52.896" height="51.985" viewBox="0 0 52.896 51.985">
  <g id="Group_388" data-name="Group 388" transform="translate(-242.968 -201.863)">
    <path id="Path_1" data-name="Path 1" d="M275.857,201.906c.006.066.06.072.107.09a79.178,79.178,0,0,0,8.9,3.766c2.208.776,4.44,1.45,6.714,2.011,1.558.382,3.122.746,4.7,1.039,1.2.221,2.405.43,3.617.585.74.1,1.474.209,2.214.316.125.018.155.06.131.179-.281,1.582-.507,3.169-.836,4.739a61.467,61.467,0,0,1-5.455,15.548,60.04,60.04,0,0,1-3.044,5.27q-.77,1.2-1.594,2.363c-.054.072-.09.161-.173.2a.085.085,0,0,1-.036.012.051.051,0,0,1-.036-.018l-3.88-3.235a1.131,1.131,0,0,1-.113-.119c.1-.137.185-.281.281-.412.794-1.092,1.5-2.238,2.19-3.4A55.994,55.994,0,0,0,295.8,215.4c.084-.364.173-.722.257-1.086.03-.125.006-.161-.119-.185l-.907-.179a78.143,78.143,0,0,1-7.825-1.886q-3.16-.922-6.237-2.107-2.426-.931-4.793-2.011a.924.924,0,0,1-.173-.084.4.4,0,0,0-.394-.012c-.5.239-1,.46-1.51.68q-3.089,1.352-6.285,2.441-3.59,1.227-7.287,2.119c-1.313.316-2.626.609-3.957.853-.281.054-.555.107-.836.155-.227.042-.239.054-.185.3.137.6.275,1.2.43,1.8q.546,2.149,1.271,4.243a55.854,55.854,0,0,0,3.521,8.117,57.025,57.025,0,0,0,3.008,5.025c.239.352.489.692.746,1.062-1.349,1.14-2.7,2.268-4.07,3.4-.263-.37-.507-.716-.746-1.062-.657-.955-1.271-1.928-1.88-2.913a57.955,57.955,0,0,1-3.778-7.275,60.584,60.584,0,0,1-2.853-8.01,61.465,61.465,0,0,1-1.415-6.315c-.143-.859-.286-1.725-.424-2.584-.024-.149-.006-.173.149-.2,1.134-.161,2.268-.31,3.4-.483,1.146-.173,2.28-.376,3.414-.609,1.635-.334,3.265-.71,4.876-1.14a74.065,74.065,0,0,0,7.759-2.537c1.486-.579,2.954-1.188,4.4-1.856.77-.358,1.534-.728,2.3-1.086.036-.018.066-.036.06-.084A1.011,1.011,0,0,0,275.857,201.906Z" transform="translate(-6.387 -0.037)" fill="#143c4e"/>
    <path id="Path_2" data-name="Path 2" d="M489.391,404.008a69.976,69.976,0,0,1-3.295,7.556,53.616,53.616,0,0,1-3.05,5.091c-.078.119-.167.227-.245.34a.523.523,0,0,1-.251-.179c-.859-.83-1.725-1.659-2.578-2.495-.292-.286-.567-.6-.847-.9-.155-.167-.149-.167-.03-.364.454-.734.913-1.456,1.355-2.2.633-1.062,1.188-2.161,1.725-3.271.06-.131.042-.167-.107-.221-.83-.281-1.659-.555-2.483-.836-1.235-.43-2.471-.877-3.682-1.373a.579.579,0,0,0-.477-.018c-1.952.794-3.939,1.486-5.939,2.143-.131.042-.322.042-.376.155-.072.137.072.281.137.418a45.909,45.909,0,0,0,3.289,5.706,43.027,43.027,0,0,0,4.661,5.789,61.7,61.7,0,0,0,4.9,4.524c1.307,1.086,2.632,2.143,4.023,3.121.46.328.931.639,1.4.961.054.036.1.078.161.125-.424.5-.836.991-1.259,1.474q-1.012,1.137-2.047,2.256c-.412.442-.848.865-1.265,1.3-.979,1.021-1.946,2.053-2.93,3.068-.877.907-1.761,1.8-2.644,2.7-.233.239-.471.472-.71.71a63.056,63.056,0,0,1-6.959-5.276,62.213,62.213,0,0,1-6.159-6.2c.006-.107.083-.131.143-.179,1.265-.925,2.537-1.844,3.808-2.769.1-.066.191-.131.3-.2.09.1.179.2.263.292a56.837,56.837,0,0,0,4.506,4.548c1.086.985,2.22,1.916,3.378,2.817a.539.539,0,0,0,.1.066.129.129,0,0,0,.173-.018c.215-.2.424-.412.639-.615q1.432-1.379,2.787-2.829c.227-.239.287-.209-.018-.46-1.212-.979-2.387-1.994-3.539-3.044a56.09,56.09,0,0,1-4.148-4.19c-1.056-1.194-2.077-2.417-3.014-3.706a50.1,50.1,0,0,1-2.871-4.429,50.863,50.863,0,0,1-3.408-7.114c-.257-.668-.531-1.337-.8-2.005-.03-.084-.06-.167-.1-.275.406-.113.806-.227,1.2-.334,2.017-.561,4.029-1.134,6.016-1.8q3.08-1.047,6.082-2.316a1.444,1.444,0,0,1,.466-.161,1.249,1.249,0,0,1,.43.155c2.059.871,4.142,1.665,6.267,2.381,1.653.555,3.33,1.05,5.013,1.516.543.149,1.086.3,1.635.46A1.875,1.875,0,0,1,489.391,404.008Z" transform="translate(-206.247 -185.749)" fill="#1be5b7"/>
  </g>
</svg>
