<svg xmlns="http://www.w3.org/2000/svg" width="276.876" height="272.104" viewBox="0 0 276.876 272.104">
  <g id="Group_59" data-name="Group 59" transform="translate(-166.112 -1164)">
    <path id="Path_35" data-name="Path 35" d="M388.077,201.931c.031.344.312.375.562.469a414.382,414.382,0,0,0,46.58,19.713c11.559,4.061,23.243,7.592,35.146,10.528,8.154,2,16.339,3.905,24.618,5.436,6.279,1.156,12.589,2.249,18.931,3.062,3.874.5,7.716,1.093,11.59,1.656.656.094.812.313.688.937-1.469,8.279-2.656,16.589-4.374,24.8a325.877,325.877,0,0,1-13.277,46.486,323.416,323.416,0,0,1-15.277,34.9A314.243,314.243,0,0,1,477.331,377.5q-4.03,6.28-8.341,12.371c-.281.375-.469.844-.906,1.062a.442.442,0,0,1-.187.062.269.269,0,0,1-.188-.094c-6.779-5.654-13.527-11.278-20.307-16.932a5.95,5.95,0,0,1-.594-.625c.5-.719.969-1.469,1.469-2.156,4.154-5.717,7.872-11.715,11.465-17.807a293.114,293.114,0,0,0,32.74-80.819c.437-1.906.906-3.78,1.343-5.686.156-.656.031-.844-.625-.969-1.593-.312-3.155-.625-4.749-.937A409.058,409.058,0,0,1,447.5,255.1q-16.542-4.826-32.646-11.028-12.7-4.873-25.086-10.528a4.826,4.826,0,0,1-.906-.438,2.1,2.1,0,0,0-2.062-.062c-2.593,1.25-5.249,2.405-7.9,3.561q-16.168,7.076-32.9,12.777-18.792,6.42-38.145,11.09c-6.873,1.656-13.746,3.187-20.713,4.468-1.468.281-2.905.562-4.373.812-1.187.218-1.25.281-.969,1.593.719,3.155,1.437,6.279,2.249,9.4Q286.9,288,290.7,298.964a292.34,292.34,0,0,0,18.432,42.487,298.445,298.445,0,0,0,15.746,26.3c1.249,1.843,2.561,3.624,3.9,5.561-7.06,5.967-14.121,11.872-21.306,17.807-1.375-1.937-2.656-3.749-3.905-5.561-3.437-5-6.654-10.091-9.841-15.245a303.336,303.336,0,0,1-19.775-38.082,317.107,317.107,0,0,1-14.933-41.925,321.713,321.713,0,0,1-7.4-33.053c-.75-4.5-1.5-9.028-2.218-13.527-.125-.781-.031-.906.781-1.031,5.936-.843,11.872-1.624,17.776-2.53,6-.906,11.934-1.968,17.87-3.187,8.56-1.749,17.089-3.717,25.524-5.967a387.682,387.682,0,0,0,40.612-13.277c7.779-3.03,15.464-6.217,23.024-9.716,4.03-1.874,8.029-3.811,12.028-5.685.187-.094.343-.188.312-.437A5.312,5.312,0,0,0,388.077,201.931Z" transform="translate(-83.243 962.1)" fill="#fff"/>
    <path id="Path_36" data-name="Path 36" d="M605.795,423.518c-5.248,13.559-10.528,26.866-17.245,39.55a280.643,280.643,0,0,1-15.964,26.648c-.406.624-.874,1.187-1.28,1.781a2.743,2.743,0,0,1-1.313-.937c-4.5-4.342-9.029-8.686-13.5-13.059-1.531-1.5-2.968-3.124-4.436-4.686-.812-.875-.781-.875-.157-1.906,2.375-3.842,4.78-7.622,7.093-11.5,3.311-5.561,6.217-11.309,9.028-17.12.312-.687.219-.875-.563-1.156-4.342-1.468-8.684-2.905-13-4.373-6.467-2.249-12.933-4.593-19.275-7.185a3.032,3.032,0,0,0-2.5-.094c-10.216,4.155-20.619,7.779-31.084,11.215-.688.219-1.687.219-1.968.812-.375.719.375,1.468.719,2.187a240.339,240.339,0,0,0,17.214,29.866,225.222,225.222,0,0,0,24.4,30.3,322.9,322.9,0,0,0,25.648,23.68c6.842,5.686,13.777,11.215,21.056,16.339,2.406,1.719,4.873,3.343,7.31,5.03.281.188.531.406.844.656-2.218,2.593-4.374,5.186-6.592,7.716q-5.3,5.952-10.715,11.81c-2.156,2.311-4.436,4.529-6.624,6.81-5.123,5.342-10.184,10.746-15.338,16.057-4.593,4.749-9.217,9.434-13.84,14.121-1.218,1.249-2.468,2.468-3.718,3.718-4.123-2.156-23.368-16.151-36.427-27.616a325.664,325.664,0,0,1-32.24-32.428c.031-.562.437-.687.75-.937,6.623-4.842,13.278-9.654,19.932-14.5.5-.343,1-.687,1.562-1.062.469.531.937,1.031,1.375,1.531A297.514,297.514,0,0,0,518.54,558.6c5.686,5.155,11.622,10.028,17.682,14.745a2.8,2.8,0,0,0,.5.343.677.677,0,0,0,.906-.093c1.124-1.062,2.218-2.156,3.343-3.217q7.5-7.217,14.589-14.808c1.188-1.25,1.5-1.094-.094-2.405-6.342-5.123-12.5-10.435-18.525-15.933A293.676,293.676,0,0,1,515.228,515.3c-5.529-6.249-10.871-12.653-15.776-19.4a262.349,262.349,0,0,1-15.026-23.18,266.275,266.275,0,0,1-17.839-37.239c-1.343-3.5-2.78-7-4.186-10.5-.157-.438-.313-.875-.5-1.437,2.124-.593,4.218-1.187,6.28-1.748,10.559-2.936,21.087-5.936,31.49-9.435q16.12-5.483,31.834-12.122a7.564,7.564,0,0,1,2.437-.844,6.539,6.539,0,0,1,2.25.812c10.778,4.561,21.681,8.717,32.8,12.465,8.654,2.906,17.432,5.5,26.241,7.935,2.844.782,5.687,1.594,8.56,2.406A9.814,9.814,0,0,1,605.795,423.518Z" transform="translate(-229.39 826.3)" fill="#1be5b7"/>
  </g>
</svg>
