<svg xmlns="http://www.w3.org/2000/svg" width="313.625" height="95.468" viewBox="0 0 313.625 95.468">
  <g id="S" transform="translate(-249.354 -201.9)">
    <path id="Path_1" data-name="Path 1" d="M298.025,201.911c.011.121.109.131.2.164a145.411,145.411,0,0,0,16.343,6.916c4.055,1.425,8.155,2.663,12.331,3.694,2.861.7,5.733,1.37,8.637,1.907,2.2.406,4.417.789,6.642,1.074,1.359.175,2.707.384,4.066.581.23.033.285.11.241.329-.515,2.9-.932,5.82-1.535,8.7a112.881,112.881,0,0,1-10.018,28.553,110.273,110.273,0,0,1-5.59,9.678q-1.414,2.2-2.927,4.34c-.1.132-.164.3-.318.373a.156.156,0,0,1-.066.022.1.1,0,0,1-.066-.033l-7.125-5.941a2.076,2.076,0,0,1-.208-.219c.175-.252.34-.515.515-.756,1.458-2.006,2.762-4.11,4.023-6.248a102.833,102.833,0,0,0,11.487-28.355c.153-.669.318-1.326.471-1.995.055-.23.011-.3-.219-.34l-1.666-.329a143.5,143.5,0,0,1-14.37-3.464q-5.8-1.693-11.454-3.869-4.456-1.71-8.8-3.694a1.7,1.7,0,0,1-.318-.154.737.737,0,0,0-.723-.022c-.91.439-1.841.844-2.773,1.25q-5.672,2.483-11.542,4.483-6.593,2.252-13.383,3.891c-2.411.581-4.823,1.118-7.267,1.567-.515.1-1.019.2-1.534.285-.417.077-.439.1-.34.559.252,1.107.5,2.2.789,3.3q1,3.946,2.335,7.793a102.568,102.568,0,0,0,6.467,14.907,104.724,104.724,0,0,0,5.524,9.229c.438.647.9,1.271,1.37,1.951-2.477,2.094-4.954,4.165-7.475,6.248-.482-.68-.932-1.315-1.37-1.951-1.206-1.754-2.335-3.54-3.453-5.349a106.44,106.44,0,0,1-6.938-13.361,111.264,111.264,0,0,1-5.239-14.709,112.882,112.882,0,0,1-2.6-11.6c-.263-1.578-.526-3.168-.778-4.746-.044-.274-.011-.318.274-.362,2.083-.3,4.165-.57,6.237-.888,2.1-.318,4.187-.691,6.27-1.118,3-.614,6-1.3,8.955-2.093a136.022,136.022,0,0,0,14.249-4.658c2.729-1.063,5.426-2.181,8.078-3.409,1.414-.658,2.817-1.337,4.22-1.995.066-.033.12-.066.11-.153A1.857,1.857,0,0,0,298.025,201.911Z" transform="translate(0 0)" fill="#fff"/>
    <path id="Path_2" data-name="Path 2" d="M512.386,407.862a128.507,128.507,0,0,1-6.05,13.876,98.464,98.464,0,0,1-5.6,9.35c-.142.219-.307.417-.449.625a.961.961,0,0,1-.46-.329c-1.578-1.524-3.168-3.047-4.735-4.582-.537-.526-1.041-1.1-1.556-1.644-.285-.307-.274-.307-.055-.669.833-1.348,1.677-2.674,2.488-4.033,1.162-1.951,2.181-3.968,3.168-6.007.11-.241.077-.307-.2-.405-1.523-.515-3.047-1.019-4.56-1.534-2.269-.789-4.538-1.611-6.763-2.521a1.064,1.064,0,0,0-.877-.033c-3.584,1.458-7.234,2.729-10.906,3.935-.241.077-.592.077-.691.285-.132.252.131.515.252.767a84.315,84.315,0,0,0,6.039,10.479,79.016,79.016,0,0,0,8.56,10.632,113.308,113.308,0,0,0,9,8.308c2.4,1.995,4.834,3.935,7.388,5.732.844.6,1.71,1.173,2.565,1.765.1.066.186.142.3.23-.778.91-1.535,1.82-2.313,2.707q-1.858,2.088-3.759,4.143c-.756.811-1.556,1.589-2.324,2.389-1.8,1.874-3.573,3.77-5.382,5.634-1.611,1.666-3.234,3.31-4.856,4.954-.428.438-.866.866-1.3,1.3a115.808,115.808,0,0,1-12.78-9.689,114.257,114.257,0,0,1-11.311-11.377c.011-.2.153-.241.263-.329,2.324-1.7,4.658-3.387,6.993-5.086.175-.121.351-.241.548-.373.164.186.329.362.482.537a104.383,104.383,0,0,0,8.275,8.352c2,1.808,4.077,3.518,6.2,5.173a.99.99,0,0,0,.175.12.237.237,0,0,0,.318-.033c.394-.373.778-.756,1.173-1.129q2.63-2.532,5.119-5.2c.417-.438.526-.384-.033-.844-2.225-1.8-4.384-3.661-6.5-5.59a103.015,103.015,0,0,1-7.618-7.694c-1.94-2.192-3.814-4.439-5.535-6.807a92.012,92.012,0,0,1-5.272-8.133,93.413,93.413,0,0,1-6.259-13.065c-.471-1.227-.975-2.455-1.469-3.683-.055-.153-.11-.307-.175-.5.745-.208,1.48-.416,2.2-.614,3.7-1.03,7.4-2.082,11.048-3.31q5.656-1.924,11.169-4.253a2.652,2.652,0,0,1,.855-.3,2.293,2.293,0,0,1,.789.285c3.782,1.6,7.607,3.058,11.509,4.373,3.036,1.019,6.116,1.929,9.207,2.784,1,.274,2,.559,3,.844A3.438,3.438,0,0,1,512.386,407.862Z" transform="translate(-189.249 -175.852)" fill="#1be5b7"/>
    <path id="Path_3" data-name="Path 3" d="M1692.826,498.546a11.319,11.319,0,0,0-1.063-3.869,8.328,8.328,0,0,0-7.728-4.932,9.089,9.089,0,0,0-1.545.121,8.064,8.064,0,0,0-2.554.8,13.408,13.408,0,0,0-2.839,1.973.753.753,0,0,1-.472.3c.044-.383.1-.734.132-1.085.154-1.282.3-2.576.46-3.858.164-1.337.34-2.663.515-4,.23-1.754.449-3.508.668-5.261.066-.537.121-1.074.175-1.611.033-.274-.011-.307-.318-.318h-7.3c-.23.011-.286.055-.307.285-.143,1.074-.274,2.148-.406,3.222-.121.965-.219,1.918-.339,2.883q-.33,2.6-.658,5.2c-.132,1.074-.263,2.148-.395,3.233q-.23,1.825-.46,3.65c-.208,1.775-.406,3.562-.614,5.338-.252,2.1-.526,4.209-.789,6.313-.186,1.5-.384,2.992-.558,4.494a.5.5,0,0,0,.065.438h7.267c.121,0,.241,0,.351-.011a.21.21,0,0,0,.2-.164c.011-.12.022-.23.022-.351.021-.636.033-1.272.055-1.907,0-.088-.044-.208.066-.252.142-.066.208.066.285.154a12.218,12.218,0,0,0,1.26,1.238,7.605,7.605,0,0,0,3.584,1.754,11.969,11.969,0,0,0,1.765.142,10.954,10.954,0,0,0,2.608-.164,10.23,10.23,0,0,0,6.368-3.913,13.224,13.224,0,0,0,2.62-7.716C1692.935,499.96,1692.892,499.259,1692.826,498.546Zm-8.188,3.584a5.844,5.844,0,0,1-1.1,2.346,4.933,4.933,0,0,1-5.437,1.513,3.927,3.927,0,0,1-2.62-3.54c-.021-.23,0-.471,0-.712a5.934,5.934,0,0,1,1.458-4.1,4.872,4.872,0,0,1,5.36-1.326,3.662,3.662,0,0,1,2.269,2.455A6.617,6.617,0,0,1,1684.638,502.13Z" transform="translate(-1261.737 -244.769)" fill="#fff"/>
    <path id="Path_4" data-name="Path 4" d="M1183.218,509.052c-.263-.033-.394-.219-.559-.34a12.664,12.664,0,0,0-3.08-1.721,12.133,12.133,0,0,0-5.152-.712,10.309,10.309,0,0,0-5.25,1.721,8.664,8.664,0,0,0-3.836,6.028,9.682,9.682,0,0,0,.274,4.341,7.66,7.66,0,0,0,3.1,4.264,9.267,9.267,0,0,0,4.713,1.545,14.471,14.471,0,0,0,7.705-1.71c.121-.066.219-.186.427-.109-.033.362-.066.734-.109,1.1q-.263,2.1-.526,4.209c-.1.8-.2,1.589-.3,2.389a.385.385,0,0,1-.285.362,23.807,23.807,0,0,1-5.119,1.348c-.723.077-1.458.088-2.192.1a17.238,17.238,0,0,1-6.182-1.03,14.74,14.74,0,0,1-7.4-5.776,15.144,15.144,0,0,1-2.379-6.368,18.089,18.089,0,0,1,.307-6.949,17.166,17.166,0,0,1,10.566-11.991,17.78,17.78,0,0,1,4.955-1.118,18.552,18.552,0,0,1,5.973.449,19.918,19.918,0,0,1,4.965,2.006c.329.175.318.186.274.559-.274,2.225-.537,4.45-.811,6.664A6.442,6.442,0,0,1,1183.218,509.052Z" transform="translate(-808.051 -264.142)" fill="#fff"/>
    <path id="Path_5" data-name="Path 5" d="M1398.6,632.885c.45-.745.856-1.4,1.25-2.071q3.057-5.047,6.127-10.106c.066-.1.109-.208.176-.307a.438.438,0,0,0,.033-.46c-.219-.548-.417-1.1-.636-1.644q-2.055-5.31-4.1-10.621c-.844-2.2-1.688-4.4-2.532-6.6-.055-.153-.11-.307-.164-.471-.044-.131.033-.208.186-.219h8.287a.329.329,0,0,1,.329.219c.1.263.219.526.328.778.724,1.841,1.458,3.683,2.181,5.524a26.171,26.171,0,0,1,1.316,4.538c.043.23.1.46.154.69,0,.011.033.011.055.022.142-.011.175-.142.219-.241a65.711,65.711,0,0,1,3.671-6.445c.932-1.523,1.875-3.058,2.806-4.592.066-.1.121-.208.175-.307a.339.339,0,0,1,.34-.2c.12.011.241,0,.35,0h7.793c.143,0,.285,0,.427.011a.132.132,0,0,1,.121.2,2.491,2.491,0,0,1-.208.372q-3.025,4.867-6.039,9.744c-1.666,2.685-3.354,5.36-5.02,8.045-1.447,2.323-2.872,4.658-4.307,6.982-1.4,2.269-2.807,4.527-4.21,6.8a.688.688,0,0,1-.657.406c-2.719-.022-5.437-.011-8.155-.011A.884.884,0,0,1,1398.6,632.885Z" transform="translate(-1023.279 -354.797)" fill="#fff"/>
    <path id="Path_6" data-name="Path 6" d="M1961.524,602.813a9.262,9.262,0,0,0-5.546-6.872,12.7,12.7,0,0,0-4.537-.965,14.491,14.491,0,0,0-2.477.11,13.463,13.463,0,0,0-3.695.932,11.112,11.112,0,0,0-5.852,5.491,12.317,12.317,0,0,0-1.228,4.472,12.046,12.046,0,0,0,.6,5.294,8.887,8.887,0,0,0,4.088,4.878,11.757,11.757,0,0,0,4.7,1.447,16.812,16.812,0,0,0,4.449-.132,12.673,12.673,0,0,0,5.294-2.072,9.923,9.923,0,0,0,3.573-4.724.783.783,0,0,0,0-.23c-.12-.011-.23-.022-.35-.022h-7.727c-.308,0-.516.033-.669.362a2.693,2.693,0,0,1-1.951,1.491,4.274,4.274,0,0,1-2.1-.022,2.8,2.8,0,0,1-1.962-1.589,4.258,4.258,0,0,1-.395-1.633,2.929,2.929,0,0,1-.022-.975c.328-.208.69-.088,1.03-.088q7.087-.016,14.173-.011h.57c.241-.011.274-.044.3-.3A16.012,16.012,0,0,0,1961.524,602.813Zm-8.1.658c-1.347.055-6.6.011-7.135-.044a3.708,3.708,0,0,1,3.509-3.343,4.237,4.237,0,0,1,1.808.252,3.423,3.423,0,0,1,2.127,3.091C1953.61,603.438,1953.523,603.47,1953.423,603.47Z" transform="translate(-1503.668 -349.978)" fill="#fff"/>
    <path id="Path_7" data-name="Path 7" d="M2501.271,506c-.066-.131-.132-.252-.187-.373a4.94,4.94,0,0,0-4.69-3.058,8.67,8.67,0,0,0-2.259.154,4.956,4.956,0,0,0-3.935,4.077,3.885,3.885,0,0,0,1.7,4.2,16.219,16.219,0,0,0,2.566,1.48c1.042.493,2.1.964,3.146,1.469a12.216,12.216,0,0,1,3.957,2.916,6.79,6.79,0,0,1,1.72,3.957,11.485,11.485,0,0,1-.471,4.757,9.331,9.331,0,0,1-6.216,6.193,11.035,11.035,0,0,1-3.475.57c-.614,0-1.228.022-1.84,0a8.39,8.39,0,0,1-4.407-1.348,8.495,8.495,0,0,1-2.542-2.718,10.486,10.486,0,0,1-1.371-3.76c-.044-.274-.012-.351.23-.428,1.063-.3,2.125-.581,3.232-.888.067.34.111.636.166.932a6.484,6.484,0,0,0,1.556,3.124,5.032,5.032,0,0,0,3.135,1.644,9.674,9.674,0,0,0,4.077-.219,5.263,5.263,0,0,0,3.079-2.225,6.747,6.747,0,0,0,.965-5.217,5.036,5.036,0,0,0-2.105-3.157,18.408,18.408,0,0,0-2.827-1.611c-1.02-.482-2.051-.954-3.069-1.458a14.4,14.4,0,0,1-2.292-1.4,6.364,6.364,0,0,1-2.444-3.858,8.564,8.564,0,0,1,.417-5.075,8.67,8.67,0,0,1,3.507-4.055,9.21,9.21,0,0,1,4.265-1.381,12.676,12.676,0,0,1,4.012.252,7.379,7.379,0,0,1,5.217,4.286,1.368,1.368,0,0,1,.1.263.223.223,0,0,1-.077.252c-.054.044-.121.077-.175.121-.823.5-1.645,1.019-2.467,1.524A1.862,1.862,0,0,1,2501.271,506Z" transform="translate(-1988.776 -264.698)" fill="#fff"/>
    <path id="Path_8" data-name="Path 8" d="M2191.992,622.172H2184.1c.208-1.7.416-3.332.613-4.965.22-1.754.417-3.507.636-5.261.208-1.666.427-3.321.624-4.976.132-1.052.252-2.1.373-3.157.109-.932.231-1.874.361-2.806.033-.274.078-.3.362-.307h7.3c.251.011.3.066.251.3-.141.691-.3,1.381-.448,2.072a.619.619,0,0,0,0,.45c.635-.471,1.205-1,1.864-1.414a8.219,8.219,0,0,1,2.1-1,10.184,10.184,0,0,1,2.3-.373,11.437,11.437,0,0,1,2.357.109c-.308,2.411-.548,4.79-.856,7.158-.263.055-.4-.1-.559-.175a7.371,7.371,0,0,0-4.417-.559,3.791,3.791,0,0,0-2.958,2.357,8.983,8.983,0,0,0-.691,2.444c-.229,1.535-.406,3.08-.6,4.626q-.312,2.6-.625,5.2A1.875,1.875,0,0,1,2191.992,622.172Z" transform="translate(-1722.683 -355.088)" fill="#fff"/>
    <path id="Path_9" data-name="Path 9" d="M2715.019,499.193a.751.751,0,0,0,.471-.3q3.667-3.288,7.313-6.587a1.435,1.435,0,0,1,1.063-.417c1.184.033,2.367.011,3.539.011.078,0,.144.033.154.11.012.033-.032.088-.055.121-.383.351-.766.7-1.16,1.041q-3.42,3.025-6.862,6.028c-.406.362-.822.712-1.228,1.074-.209.186-.22.23-.043.471.6.789,1.195,1.578,1.808,2.368q3.107,4.044,6.215,8.078c.142.175.263.373.383.548-.1.164-.229.11-.339.11-1.163,0-2.314-.011-3.474.011a.845.845,0,0,1-.768-.362c-1.1-1.48-2.214-2.937-3.333-4.406q-1.5-1.973-3.014-3.924c-.032-.033-.054-.077-.087-.109-.153-.175-.252-.2-.406-.066-.176.154-.34.329-.526.471a.74.74,0,0,0-.275.537c-.121,1.129-.274,2.247-.4,3.376-.187,1.469-.374,2.948-.548,4.417a20.04,20.04,0,0,1-3.442,0c.064-.6.12-1.206.2-1.809.12-.986.252-1.962.373-2.949.166-1.337.33-2.663.494-4s.341-2.664.5-4c.272-2.2.547-4.4.821-6.6.2-1.633.385-3.277.591-4.921.263-2.148.549-4.308.823-6.456.164-1.315.317-2.62.471-3.935.033-.3.067-.329.34-.329h2.9c.187,0,.263.088.242.263-.131,1.052-.274,2.1-.406,3.157-.229,1.852-.46,3.694-.69,5.546-.252,1.984-.5,3.979-.757,5.963-.175,1.447-.339,2.9-.516,4.351-.109.91-.24,1.82-.36,2.729A1.538,1.538,0,0,1,2715.019,499.193Z" transform="translate(-2190.94 -244.769)" fill="#fff"/>
    <path id="Path_10" data-name="Path 10" d="M2894.363,628.712c.042,0,.076-.055.12-.12.646-1.1,1.3-2.192,1.939-3.288,1.326-2.28,2.653-4.57,3.979-6.85.68-1.162,1.359-2.324,2.018-3.5a.6.6,0,0,1,.613-.362c1.129.022,2.257.011,3.365.011.089.2-.01.307-.088.427q-2.795,4.685-5.58,9.36-3.731,6.264-7.474,12.506-2.451,4.094-4.89,8.21a2.648,2.648,0,0,0-.175.307.408.408,0,0,1-.406.219h-2.126c-.439,0-.875,0-1.3-.011-.065-.219.066-.318.132-.438q3.156-5.162,6.335-10.3c.35-.559.669-1.14,1.042-1.688a1.014,1.014,0,0,0,.11-1.052c-.417-1-.779-2.028-1.174-3.036q-2.251-5.8-4.5-11.6c-.308-.789-.615-1.589-.911-2.378a1.886,1.886,0,0,1-.109-.329.138.138,0,0,1,.143-.187c.262-.011.514-.011.778-.011.822,0,1.655.011,2.478,0a.419.419,0,0,1,.459.329c.625,1.7,1.272,3.4,1.907,5.1.756,2.028,1.5,4.067,2.258,6.094.307.822.614,1.633.921,2.444C2894.231,628.635,2894.231,628.712,2894.363,628.712Z" transform="translate(-2346.168 -367.46)" fill="#fff"/>
    <path id="Path_11" data-name="Path 11" d="M3067.032,756.864a2.532,2.532,0,1,1,2.532-2.532A2.533,2.533,0,0,1,3067.032,756.864Zm0-4.779a2.247,2.247,0,1,0,2.247,2.247A2.251,2.251,0,0,0,3067.032,752.085Z" transform="translate(-2506.585 -489.627)" fill="#fff"/>
    <g id="Group_1" data-name="Group 1" transform="translate(559.757 263.401)">
      <path id="Path_12" data-name="Path 12" d="M3081.3,763.055a3.356,3.356,0,0,1,.615-.055,1.043,1.043,0,0,1,.712.2.624.624,0,0,1,.2.471.653.653,0,0,1-.459.625v.011a.637.637,0,0,1,.362.493,3.962,3.962,0,0,0,.187.668h-.33a2.661,2.661,0,0,1-.164-.592c-.077-.34-.208-.471-.493-.471h-.3v1.063h-.318v-2.411Zm.319,1.118h.328c.341,0,.561-.186.561-.46,0-.318-.23-.46-.561-.46a1.014,1.014,0,0,0-.317.033v.888Z" transform="translate(-3081.3 -763)" fill="#fff"/>
    </g>
  </g>
</svg>
